<svg xmlns="http://www.w3.org/2000/svg" width="47.44" height="60" viewBox="0 0 47.44 60"><g transform="translate(-1492.848 -1906.772)"><path d="M478.456,742.3l-22.6,5.884v23.78A28.358,28.358,0,0,0,474.472,798.6l3.984,1.458,3.984-1.458a28.358,28.358,0,0,0,18.613-26.632v-23.78Z" transform="translate(1038.112 1165.595)" fill="#feddd4"/><path d="M491.092,800.051l3.972-1.453a28.358,28.358,0,0,0,18.613-26.631V748.186L491.092,742.3Z" transform="translate(1025.488 1165.593)" fill="#fa8060"/><path d="M500.709,746.47l-22.6-5.884a1.116,1.116,0,0,0-.567,0l-22.6,5.884a1.122,1.122,0,0,0-.839,1.086v7.67a1.123,1.123,0,1,0,2.246,0v-6.8l21.474-5.591,21.474,5.591v22.913a27.328,27.328,0,0,1-17.877,25.577l-3.6,1.317-3.6-1.317a27.328,27.328,0,0,1-17.876-25.577v-1.222a1.123,1.123,0,0,0-2.246,0v1.222a29.581,29.581,0,0,0,19.35,27.686l3.984,1.458a1.129,1.129,0,0,0,.772,0l3.984-1.458a29.581,29.581,0,0,0,19.351-27.686V747.557a1.122,1.122,0,0,0-.84-1.086" transform="translate(1038.739 1166.222)" fill="#003753"/><path d="M602.906,636.461a1.213,1.213,0,0,0,1.123-1.286v-3.66a1.133,1.133,0,1,0-2.246,0v3.66a1.213,1.213,0,0,0,1.123,1.286" transform="translate(891.065 1295.938)" fill="#fa8060"/></g></svg>