<svg xmlns="http://www.w3.org/2000/svg" width="60" height="60" viewBox="0 0 60 60"><path d="M206.466,603.613H151.432a1.36,1.36,0,0,1-1.36-1.36V595.66a1.36,1.36,0,0,1,1.36-1.36h55.034a1.36,1.36,0,0,1,1.36,1.36v6.594a1.36,1.36,0,0,1-1.36,1.36" transform="translate(-148.95 -593.177)" fill="#feddd4"/><path d="M170.762,638.279H151.433a1.36,1.36,0,0,1-1.36-1.36V620.308a1.36,1.36,0,0,1,1.36-1.36h19.329a1.36,1.36,0,0,1,1.36,1.36v16.611a1.36,1.36,0,0,1-1.36,1.36" transform="translate(-148.95 -602.008)" fill="#fa8060"/><path d="M222.589,660.865H196.432a1.36,1.36,0,0,1-1.36-1.36V620.251a1.36,1.36,0,0,1,1.36-1.36h26.157a1.36,1.36,0,0,1,1.36,1.36V659.5a1.36,1.36,0,0,1-1.36,1.36" transform="translate(-165.073 -601.988)" fill="#feddd4"/><path d="M170.762,675.351H151.433a1.36,1.36,0,0,1-1.36-1.36V660.685a1.36,1.36,0,0,1,1.36-1.361h19.329a1.36,1.36,0,0,1,1.36,1.361v13.307a1.36,1.36,0,0,1-1.36,1.36" transform="translate(-148.95 -616.474)" fill="#feddd4"/><path d="M170.135,617.2H150.806a2.486,2.486,0,0,0-2.483,2.483v16.611a2.486,2.486,0,0,0,2.483,2.483h19.328a2.486,2.486,0,0,0,2.483-2.483V619.681a2.486,2.486,0,0,0-2.483-2.483m.237,19.094a.237.237,0,0,1-.237.237H150.806a.237.237,0,0,1-.237-.237V619.681a.238.238,0,0,1,.237-.237h19.328a.238.238,0,0,1,.237.237Z" transform="translate(-148.323 -601.381)" fill="#003753"/><path d="M170.135,657.574H150.806a2.486,2.486,0,0,0-2.483,2.483v13.307a2.486,2.486,0,0,0,2.483,2.483h19.328a2.486,2.486,0,0,0,2.483-2.483V660.057a2.486,2.486,0,0,0-2.483-2.483m.237,15.79a.238.238,0,0,1-.237.237H150.806a.238.238,0,0,1-.237-.237V660.057a.238.238,0,0,1,.237-.237h19.328a.238.238,0,0,1,.237.237Z" transform="translate(-148.323 -615.847)" fill="#003753"/><path d="M221.963,617.141H195.806a2.486,2.486,0,0,0-2.483,2.483v39.253a2.486,2.486,0,0,0,2.483,2.483h26.157a2.486,2.486,0,0,0,2.483-2.483V648.652a1.123,1.123,0,1,0-2.246,0v10.226a.237.237,0,0,1-.237.237H195.806a.237.237,0,0,1-.237-.237V619.624a.238.238,0,0,1,.237-.237h26.157a.237.237,0,0,1,.237.237v14.138a1.123,1.123,0,1,0,2.246,0V619.624a2.486,2.486,0,0,0-2.483-2.483" transform="translate(-164.446 -601.361)" fill="#003753"/><path d="M239.446,650.409a1.123,1.123,0,0,0-1.123,1.123v3.19a1.123,1.123,0,1,0,2.246,0v-3.19a1.123,1.123,0,0,0-1.123-1.123" transform="translate(-180.569 -613.28)" fill="#fa8060"/><path d="M205.84,592.55H173.765a1.123,1.123,0,0,0,0,2.246H205.84a.237.237,0,0,1,.237.237v6.594a.237.237,0,0,1-.237.237H150.806a.237.237,0,0,1-.237-.237v-6.594a.237.237,0,0,1,.237-.237h8.07a1.123,1.123,0,1,0,0-2.246h-8.07a2.486,2.486,0,0,0-2.483,2.483v6.594a2.486,2.486,0,0,0,2.483,2.483H205.84a2.486,2.486,0,0,0,2.483-2.483v-6.594a2.486,2.486,0,0,0-2.483-2.483" transform="translate(-148.323 -592.55)" fill="#003753"/><path d="M173.256,594.8h3.19a1.123,1.123,0,1,0,0-2.246h-3.19a1.123,1.123,0,1,0,0,2.246" transform="translate(-156.854 -592.55)" fill="#fa8060"/></svg>