<svg xmlns="http://www.w3.org/2000/svg" width="60.428" height="60" viewBox="0 0 60.428 60"><g transform="translate(0)"><path d="M66.8,365.822l-18.171,7.82a13.343,13.343,0,0,1-6.8.781l-18.048-2.641V354.748h9.925a5.235,5.235,0,0,1,4.462,2.479,6,6,0,0,0,2.021,2.008,5.264,5.264,0,0,0,2.719.756H47.08a3.374,3.374,0,0,1,3.377,3.377l14.716-2.809a2.844,2.844,0,0,1,3.313,2.215,2.761,2.761,0,0,1-1.685,3.048" transform="translate(-9.23 -317.255)" fill="#feddd4"/><path d="M51.1,372.009H36.588a1.127,1.127,0,0,1,0-2.255H51.1a2.253,2.253,0,0,0,2.251-2.251,1.127,1.127,0,1,1,2.255,0,4.511,4.511,0,0,1-4.506,4.506" transform="translate(-13.385 -321.392)" fill="#003753"/><rect width="13.425" height="25.423" transform="translate(1.127 33.45)" fill="#fa8060"/><path d="M69.3,319.253a10.362,10.362,0,0,1-3.285,7.585c-.133.126-.273.253-.413.372a3.078,3.078,0,0,0-1.064,2.339v.126H53.22v-.126a3.182,3.182,0,0,0-1.134-2.4c-.119-.1-.231-.2-.343-.316a10.364,10.364,0,0,1-3.278-8.054,10.423,10.423,0,0,1,20.836.47" transform="translate(-18.008 -300.918)" fill="#feddd4"/><path d="M67.171,341.187v3.04a3.76,3.76,0,0,1-3.76,3.76h-3.8a3.76,3.76,0,0,1-3.76-3.76v-3.04Z" transform="translate(-20.64 -312.43)" fill="#fa8060"/><path d="M38.854,322.592H36.583a1.127,1.127,0,0,0,0,2.255h2.271a1.127,1.127,0,0,0,0-2.255" transform="translate(-13.383 -305.815)" fill="#003753"/><path d="M90.191,322.592H87.92a1.127,1.127,0,0,0,0,2.255h2.27a1.127,1.127,0,0,0,0-2.255" transform="translate(-31.647 -305.815)" fill="#003753"/><path d="M44.513,303.262a1.128,1.128,0,0,0-1.6,1.594l1.606,1.605a1.127,1.127,0,1,0,1.594-1.594Z" transform="translate(-15.921 -298.82)" fill="#003753"/><path d="M64.014,296.55a1.128,1.128,0,0,0-1.127,1.127v2.271a1.127,1.127,0,0,0,2.255,0v-2.271a1.128,1.128,0,0,0-1.127-1.127" transform="translate(-23.143 -296.55)" fill="#003753"/><path d="M82.629,303.261l-1.606,1.606a1.127,1.127,0,1,0,1.594,1.594l1.606-1.605a1.127,1.127,0,0,0-1.594-1.595" transform="translate(-29.477 -298.82)" fill="#003753"/><path d="M62.484,326.438a1.122,1.122,0,0,1-.8-.33l-2.772-2.772a1.127,1.127,0,0,1,1.594-1.594l1.975,1.975,3.331-3.331a1.127,1.127,0,0,1,1.594,1.595l-4.128,4.128a1.123,1.123,0,0,1-.8.33" transform="translate(-21.612 -304.912)" fill="#003753"/><path d="M50.324,327.013c.138.138.276.267.405.372a2.052,2.052,0,0,1,.742,1.54v3.166a4.893,4.893,0,0,0,4.888,4.888h3.8a4.893,4.893,0,0,0,4.888-4.888v-3.166a1.939,1.939,0,0,1,.667-1.479c.156-.133.312-.273.455-.408a11.552,11.552,0,1,0-15.842-.025m12.465,5.079a2.636,2.636,0,0,1-2.633,2.633h-3.8a2.636,2.636,0,0,1-2.633-2.633v-1.913h9.063Zm-5.2-22.737A9.291,9.291,0,0,1,64.619,325.4c-.119.113-.244.225-.37.333a4.163,4.163,0,0,0-1.341,2.194H53.6a4.412,4.412,0,0,0-1.421-2.264c-.091-.075-.177-.157-.289-.267a9.272,9.272,0,0,1-2.922-7.182,9.392,9.392,0,0,1,8.623-8.856" transform="translate(-17.386 -300.295)" fill="#003753"/><path d="M36.583,324.847h2.271a1.127,1.127,0,0,0,0-2.255H36.583a1.127,1.127,0,0,0,0,2.255" transform="translate(-13.383 -305.815)" fill="#003753"/><path d="M87.92,324.847h2.27a1.127,1.127,0,0,0,0-2.255H87.92a1.127,1.127,0,0,0,0,2.255" transform="translate(-31.647 -305.815)" fill="#003753"/><path d="M44.524,306.462a1.128,1.128,0,0,0,1.6-1.594l-1.606-1.605a1.127,1.127,0,1,0-1.594,1.594Z" transform="translate(-15.921 -298.82)" fill="#003753"/><path d="M64.014,301.076a1.128,1.128,0,0,0,1.127-1.127v-2.271a1.127,1.127,0,1,0-2.255,0v2.271a1.128,1.128,0,0,0,1.127,1.127" transform="translate(-23.143 -296.55)" fill="#003753"/><path d="M81.82,306.792a1.123,1.123,0,0,0,.8-.33l1.606-1.605a1.127,1.127,0,0,0-1.594-1.595l-1.605,1.606a1.127,1.127,0,0,0,.8,1.924" transform="translate(-29.477 -298.82)" fill="#003753"/><path d="M61.687,326.108a1.126,1.126,0,0,0,1.594,0l4.128-4.128a1.127,1.127,0,0,0-1.594-1.594l-3.331,3.331-1.975-1.975a1.127,1.127,0,1,0-1.594,1.594Z" transform="translate(-21.612 -304.912)" fill="#003753"/><path d="M61.561,359.725a3.963,3.963,0,0,0-4.635-3.128l-13.575,2.591a4.553,4.553,0,0,0-1.125-1.866,4.5,4.5,0,0,0-3.182-1.314H34.873a4.167,4.167,0,0,1-2.144-.6,4.881,4.881,0,0,1-1.637-1.632,6.334,6.334,0,0,0-5.421-3.013h-8.8v-2.916a1.127,1.127,0,0,0-1.127-1.127H2.321a1.127,1.127,0,0,0-1.127,1.127v25.423A1.128,1.128,0,0,0,2.321,374.4H15.747a1.128,1.128,0,0,0,1.127-1.127v-3.041l16.758,2.451a14.342,14.342,0,0,0,2.08.151,14.6,14.6,0,0,0,5.328-1.012l2.555-1.1a1.127,1.127,0,0,0-.892-2.071l-2.521,1.086a12.251,12.251,0,0,1-6.225.716l-17.084-2.5V353.02h8.8a4.092,4.092,0,0,1,3.5,1.946,7.133,7.133,0,0,0,2.4,2.38,6.411,6.411,0,0,0,3.3.917h4.171a2.243,2.243,0,0,1,2.205,1.8,1.131,1.131,0,0,0-.091.443,2.254,2.254,0,0,1-2.251,2.252H24.4a1.127,1.127,0,0,0,0,2.255H38.907a4.511,4.511,0,0,0,4.395-3.525l14.024-2.677a1.724,1.724,0,0,1,2.013,1.3,1.635,1.635,0,0,1-1.021,1.815l-1.882.81a1.127,1.127,0,0,0,.892,2.071l1.86-.8a3.865,3.865,0,0,0,2.373-4.286M14.619,372.145H3.449V348.977h11.17v23.168Z" transform="translate(-1.194 -314.4)" fill="#003753"/><path d="M76.566,375.14l-2.942,1.266a1.127,1.127,0,1,0,.891,2.071l2.943-1.266a1.127,1.127,0,0,0-.892-2.071" transform="translate(-26.72 -324.477)" fill="#fa8060"/></g></svg>