<svg xmlns="http://www.w3.org/2000/svg" width="50.001" height="58.325" viewBox="0 0 50.001 58.325"><g transform="translate(-902.583 -1175.477)"><path d="M635.437,596.649v26.982a8.7,8.7,0,0,0-2.494-.364,8.617,8.617,0,0,0-7.8,12.267h-19.17a2.366,2.366,0,0,1-2.438-2.289V596.649a2.366,2.366,0,0,1,2.438-2.289H633a2.366,2.366,0,0,1,2.438,2.289" transform="translate(300.461 582.015)" fill="#feddd4"/><path d="M617.924,607.751h16.257a.9.9,0,1,0,0-1.8H617.924a.9.9,0,1,0,0,1.8" transform="translate(293.894 576.371)" fill="#fffaf9"/><path d="M634.181,618.3H617.924a.9.9,0,1,0,0,1.8h16.257a.9.9,0,1,0,0-1.8" transform="translate(293.894 570.361)" fill="#fffaf9"/><path d="M634.181,630.654H617.924a.9.9,0,0,0,0,1.8h16.257a.9.9,0,1,0,0-1.8" transform="translate(293.894 564.349)" fill="#fffaf9"/><path d="M634.181,643H617.924a.9.9,0,0,0,0,1.8h16.257a.9.9,0,1,0,0-1.8" transform="translate(293.894 558.339)" fill="#fffaf9"/><path d="M626.053,655.351h-8.128a.9.9,0,1,0,0,1.8h8.128a.9.9,0,0,0,0-1.8" transform="translate(293.894 552.328)" fill="#fffaf9"/><path d="M635.483,622.141V595.8a3.268,3.268,0,0,0-3.336-3.187H605.119a3.268,3.268,0,0,0-3.336,3.187v12.344a.9.9,0,0,0,1.8,0V595.8a1.473,1.473,0,0,1,1.54-1.391h27.028a1.473,1.473,0,0,1,1.54,1.391v25.858a9.49,9.49,0,0,0-11.106,9.372,9.461,9.461,0,0,0,.418,2.756H605.119a1.473,1.473,0,0,1-1.54-1.391V620.048a.9.9,0,0,0-1.8,0v12.344a3.268,3.268,0,0,0,3.336,3.187h18.623a9.51,9.51,0,0,0,17.859-4.553,9.454,9.454,0,0,0-6.118-8.886m-3.393,16.6a7.751,7.751,0,0,1-6.988-4.44,7.72,7.72,0,0,1,6.988-10.988,7.792,7.792,0,0,1,2.234.326,7.717,7.717,0,0,1-2.234,15.1" transform="translate(300.8 582.867)" fill="#003753"/><path d="M617.924,607.751h16.257a.9.9,0,1,0,0-1.8H617.924a.9.9,0,1,0,0,1.8" transform="translate(293.894 576.371)" fill="#003753"/><path d="M617.924,620.1h16.257a.9.9,0,1,0,0-1.8H617.924a.9.9,0,1,0,0,1.8" transform="translate(293.894 570.361)" fill="#003753"/><path d="M617.924,632.45h16.257a.9.9,0,1,0,0-1.8H617.924a.9.9,0,0,0,0,1.8" transform="translate(293.894 564.349)" fill="#003753"/><path d="M617.924,644.8h16.257a.9.9,0,1,0,0-1.8H617.924a.9.9,0,0,0,0,1.8" transform="translate(293.894 558.339)" fill="#003753"/><path d="M617.924,657.147h8.128a.9.9,0,0,0,0-1.8h-8.128a.9.9,0,1,0,0,1.8" transform="translate(293.894 552.328)" fill="#003753"/><path d="M298.09,457.878a12.161,12.161,0,0,1,24.294,0c.012.182.016.363.016.545a12.076,12.076,0,0,1-2.052,6.809l7.016,7.016a2.367,2.367,0,1,1-3.347,3.347L317,468.578a12.167,12.167,0,0,1-18.539-7.054,11.983,11.983,0,0,1-.387-3.2c0-.15,0-.3.016-.45" transform="translate(623.947 756.933)" fill="#feddd4"/><path d="M311.281,471.679a7.3,7.3,0,0,0,.557.506,8.6,8.6,0,0,0,10.256.6,7.836,7.836,0,0,0,.8-.6c.188-.156.372-.326.553-.506a8.862,8.862,0,0,0,1.109-1.352,8.6,8.6,0,1,0-13.274,1.352" transform="translate(616.819 749.803)" fill="#feddd4"/><path d="M317.37,475.7h0a10.1,10.1,0,0,1-6.487-2.358,8.765,8.765,0,0,1-.661-.6,10.1,10.1,0,1,1,15.587-1.587l0,.007a10.406,10.406,0,0,1-1.3,1.58c-.218.218-.435.417-.647.592a9.378,9.378,0,0,1-.941.706A10.042,10.042,0,0,1,317.37,475.7Zm-.006-17.206a7.1,7.1,0,0,0-5.022,12.125,5.772,5.772,0,0,0,.442.4l.02.017a7.1,7.1,0,0,0,4.565,1.662h0a7.053,7.053,0,0,0,3.9-1.166,6.379,6.379,0,0,0,.648-.486l.02-.017c.143-.119.295-.258.45-.412a7.4,7.4,0,0,0,.919-1.119,7.122,7.122,0,0,0-.92-8.922A7.051,7.051,0,0,0,317.364,458.493Z" transform="translate(616.819 749.803)" fill="#003753"/><path d="M326.608,470.669l-6.683-6.683a12.466,12.466,0,0,0,1.518-3.62,12.7,12.7,0,0,0,.372-3.109c0-.195,0-.389-.017-.572a12.739,12.739,0,0,0-1.891-6.1.583.583,0,0,0-.991.615,11.578,11.578,0,0,1,1.718,5.548c.011.169.015.337.015.508a11.49,11.49,0,0,1-1.953,6.481.583.583,0,0,0,.072.738l7.015,7.015a1.789,1.789,0,0,1,0,2.524,1.778,1.778,0,0,1-2.522,0L316.246,467a.583.583,0,0,0-.737-.072,11.6,11.6,0,0,1-14.629-1.44,11.478,11.478,0,0,1-2.578-3.92,11.706,11.706,0,0,1-.443-1.356,11.412,11.412,0,0,1-.368-3.05c0-.135,0-.269.015-.423a11.573,11.573,0,0,1,15.714-10.252.583.583,0,1,0,.417-1.089,12.739,12.739,0,0,0-17.295,11.268c-.013.166-.017.331-.017.487a12.558,12.558,0,0,0,.406,3.354,12.87,12.87,0,0,0,.487,1.491,12.626,12.626,0,0,0,2.838,4.315,12.772,12.772,0,0,0,15.7,1.844l6.682,6.679a2.924,2.924,0,0,0,2.086.867h0a2.925,2.925,0,0,0,2.086-.866,2.957,2.957,0,0,0,0-4.172" transform="translate(625.114 758.094)" fill="#003753"/><path d="M354.517,452.56a11.753,11.753,0,0,1,1.213,1.018.583.583,0,1,0,.807-.842,12.874,12.874,0,0,0-1.334-1.119.583.583,0,1,0-.686.943" transform="translate(586.469 753.462)" fill="#fa8060"/><path d="M617.558,607.451h9.634c.294,0,.532-.335.532-.748s-.238-.748-.532-.748h-9.634c-.294,0-.532.335-.532.748s.238.748.532.748" transform="translate(311.809 606.021)" fill="#fa8060"/><path d="M617.4,607.451h6.719c.205,0,.371-.335.371-.748s-.166-.748-.371-.748H617.4c-.205,0-.371.335-.371.748s.166.748.371.748" transform="translate(311.809 608.696)" fill="#fa8060"/><path d="M617.492,607.451h8.436c.258,0,.466-.335.466-.748s-.209-.748-.466-.748h-8.436c-.257,0-.466.335-.466.748s.209.748.466.748" transform="translate(311.809 611.371)" fill="#fa8060"/></g></svg>