<svg xmlns="http://www.w3.org/2000/svg" width="49.848" height="60" viewBox="0 0 49.848 60"><g transform="translate(-1200.522 -1552.428)"><path d="M643.473,597.226V631a10.889,10.889,0,0,0-3.123-.456,10.788,10.788,0,0,0-9.767,15.357h-24a2.962,2.962,0,0,1-3.052-2.866V597.226a2.962,2.962,0,0,1,3.052-2.866h33.836a2.962,2.962,0,0,1,3.052,2.866" transform="translate(598.114 959.192)" fill="#feddd4"/><path d="M665.616,661.462a10.782,10.782,0,1,1-10.782-10.782,10.759,10.759,0,0,1,10.782,10.782" transform="translate(583.629 939.06)" fill="#feddd4"/><path d="M657.087,669.061a1.119,1.119,0,0,1-.795-.33l-3.377-3.377a1.124,1.124,0,0,1,1.59-1.59l2.582,2.582,4.181-4.181a1.124,1.124,0,1,1,1.59,1.59l-4.976,4.976a1.119,1.119,0,0,1-.795.33" transform="translate(580.579 935.072)" fill="#fffaf9"/><path d="M618.15,608.2H638.5a1.124,1.124,0,0,0,0-2.249H618.15a1.124,1.124,0,0,0,0,2.249" transform="translate(593.29 955.047)" fill="#fffaf9"/><path d="M638.5,618.3H618.15a1.124,1.124,0,0,0,0,2.249H638.5a1.124,1.124,0,0,0,0-2.249" transform="translate(593.29 950.633)" fill="#fffaf9"/><path d="M638.5,630.654H618.15a1.124,1.124,0,0,0,0,2.249H638.5a1.124,1.124,0,0,0,0-2.249" transform="translate(593.29 946.219)" fill="#fffaf9"/><path d="M638.5,643H618.15a1.124,1.124,0,0,0,0,2.249H638.5a1.124,1.124,0,0,0,0-2.249" transform="translate(593.29 941.805)" fill="#fffaf9"/><path d="M628.326,655.351H618.15a1.124,1.124,0,0,0,0,2.249h10.176a1.124,1.124,0,0,0,0-2.249" transform="translate(593.29 937.39)" fill="#fffaf9"/><path d="M602.907,635.679a1.124,1.124,0,0,0,1.124-1.124v-3.2a1.124,1.124,0,0,0-2.249,0v3.2a1.124,1.124,0,0,0,1.124,1.124" transform="translate(598.739 946.37)" fill="#fa8060"/><path d="M643.972,629.58V596.6a4.091,4.091,0,0,0-4.177-3.99H605.959a4.091,4.091,0,0,0-4.176,3.99v15.453a1.124,1.124,0,1,0,2.249,0V596.6a1.844,1.844,0,0,1,1.928-1.741H639.8a1.843,1.843,0,0,1,1.928,1.741v32.371a11.881,11.881,0,0,0-13.9,11.733,11.842,11.842,0,0,0,.523,3.45H605.959a1.844,1.844,0,0,1-1.928-1.741V626.96a1.124,1.124,0,1,0-2.249,0v15.453a4.091,4.091,0,0,0,4.176,3.99h23.314a11.9,11.9,0,0,0,22.358-5.7,11.836,11.836,0,0,0-7.659-11.124m-4.247,20.782a9.7,9.7,0,0,1-8.748-5.559,9.665,9.665,0,0,1,8.748-13.756,9.755,9.755,0,0,1,2.8.408,9.661,9.661,0,0,1-2.8,18.907" transform="translate(598.739 959.818)" fill="#003753"/><path d="M661.268,662.166l-4.181,4.181-2.582-2.582a1.124,1.124,0,0,0-1.59,1.59l3.377,3.377a1.123,1.123,0,0,0,1.59,0l4.976-4.976a1.124,1.124,0,0,0-1.59-1.59" transform="translate(580.579 935.072)" fill="#fa8060"/><path d="M618.15,608.2H638.5a1.124,1.124,0,0,0,0-2.249H618.15a1.124,1.124,0,0,0,0,2.249" transform="translate(593.29 955.047)" fill="#003753"/><path d="M618.15,620.553H638.5a1.124,1.124,0,0,0,0-2.249H618.15a1.124,1.124,0,0,0,0,2.249" transform="translate(593.29 950.633)" fill="#003753"/><path d="M618.15,632.9H638.5a1.124,1.124,0,0,0,0-2.249H618.15a1.124,1.124,0,0,0,0,2.249" transform="translate(593.29 946.219)" fill="#003753"/><path d="M618.15,645.251H638.5a1.124,1.124,0,0,0,0-2.249H618.15a1.124,1.124,0,0,0,0,2.249" transform="translate(593.29 941.805)" fill="#003753"/><path d="M618.15,657.6h10.176a1.124,1.124,0,0,0,0-2.249H618.15a1.124,1.124,0,0,0,0,2.249" transform="translate(593.29 937.39)" fill="#003753"/></g></svg>