<svg xmlns="http://www.w3.org/2000/svg" width="60" height="60" viewBox="0 0 60 60"><g transform="translate(-1201.75 -1188.775)"><path d="M46.446,904.088a1.123,1.123,0,0,0-1.123,1.123V909.9a1.123,1.123,0,0,0,2.246,0v-4.685a1.123,1.123,0,0,0-1.123-1.123" transform="translate(1185.304 294.658)" fill="#003753"/><path d="M46.446,955.711a1.123,1.123,0,0,0-1.123,1.123v4.685a1.123,1.123,0,0,0,2.246,0v-4.685a1.123,1.123,0,0,0-1.123-1.123" transform="translate(1185.304 276.162)" fill="#003753"/><path d="M62.116,915.723a1.118,1.118,0,0,0,.794-.329l7.884-7.883a1.123,1.123,0,0,0-1.588-1.588l-7.884,7.884a1.123,1.123,0,0,0,.794,1.917" transform="translate(1179.69 294.118)" fill="#003753"/><path d="M25.878,949.6l-7.128,7.128a1.123,1.123,0,1,0,1.588,1.588l7.129-7.128a1.123,1.123,0,1,0-1.588-1.588" transform="translate(1194.943 278.468)" fill="#003753"/><path d="M62.876,949.639a1.123,1.123,0,1,0-1.588,1.588l7.107,7.106a1.123,1.123,0,0,0,1.588-1.588Z" transform="translate(1179.702 278.455)" fill="#003753"/><path d="M18.328,905.021a1.123,1.123,0,1,0-1.588,1.588l8.44,8.44a1.123,1.123,0,0,0,1.588-1.588Z" transform="translate(1195.663 294.441)" fill="#003753"/><path d="M73.292,933.55H68.607a1.123,1.123,0,1,0,0,2.246h4.685a1.123,1.123,0,0,0,0-2.246" transform="translate(1177.364 284.102)" fill="#003753"/><path d="M22.029,934.673a1.123,1.123,0,0,0-1.123-1.123H14.855a1.123,1.123,0,1,0,0,2.246h6.051a1.123,1.123,0,0,0,1.123-1.123" transform="translate(1196.623 284.102)" fill="#003753"/><path d="M49.275,895.285a4.985,4.985,0,1,1-4.985-4.985,4.985,4.985,0,0,1,4.985,4.985" transform="translate(1187.461 299.598)" fill="#feddd4"/><path d="M39.3,969.747a4.985,4.985,0,1,1,4.985,4.985,4.985,4.985,0,0,1-4.985-4.985" transform="translate(1187.461 272.919)" fill="#feddd4"/><path d="M79.571,903.882a3.632,3.632,0,1,1,0-5.136,3.632,3.632,0,0,1,0,5.136" transform="translate(1175.255 296.953)" fill="#feddd4"/><path d="M16.115,967.456a4.255,4.255,0,1,0-6.018,0,4.255,4.255,0,0,0,6.018,0" transform="translate(1198.372 274.556)" fill="#feddd4"/><path d="M73.087,967.456a4.255,4.255,0,1,1,6.018,0,4.255,4.255,0,0,1-6.018,0" transform="translate(1175.803 274.556)" fill="#feddd4"/><path d="M8.087,902.387a4.255,4.255,0,1,0,0-6.018,4.255,4.255,0,0,0,0,6.018" transform="translate(1199.092 297.87)" fill="#feddd4"/><path d="M81.52,937.5a4.985,4.985,0,1,1,4.985-4.985A4.985,4.985,0,0,1,81.52,937.5" transform="translate(1174.121 286.258)" fill="#feddd4"/><path d="M6.375,928.6a4.3,4.3,0,1,1-4.3,4.3,4.3,4.3,0,0,1,4.3-4.3" transform="translate(1200.8 285.877)" fill="#feddd4"/><path d="M53.353,927.356a14.218,14.218,0,1,1-14.218-14.218,14.229,14.229,0,0,1,14.218,14.218" transform="translate(1192.616 291.415)" fill="#feddd4"/><path d="M49.706,928.978a5.958,5.958,0,1,1-.427-2.22,5.929,5.929,0,0,1,.427,2.22" transform="translate(1188.005 287.877)" fill="#fa8060"/><path d="M50.593,949.341a14.255,14.255,0,0,1-15.941,0,7.976,7.976,0,0,1,12.728-6.172,7.36,7.36,0,0,1,.882.766,7.931,7.931,0,0,1,2.332,5.406" transform="translate(1189.127 281.219)" fill="#fa8060"/><path d="M47.548,934.267l-5.65-5.651a15.379,15.379,0,0,0,1.5-2.032,1.123,1.123,0,0,0-1.913-1.177,13.289,13.289,0,0,1-2.37,2.834,9.037,9.037,0,0,0-2.347-4.1,8.531,8.531,0,0,0-1.016-.883,9.233,9.233,0,0,0-1.367-.834,7.1,7.1,0,1,0-8.114,0,9.27,9.27,0,0,0-1.369.836,9.037,9.037,0,0,0-3.375,4.985,13.1,13.1,0,1,1,19.962-16.553,1.123,1.123,0,0,0,1.913-1.177,15.638,15.638,0,0,0-1.462-1.991l6.427-6.427a4.756,4.756,0,1,0-1.588-1.588l-6.422,6.421a15.209,15.209,0,0,0-8.906-3.683v-2.591a6.108,6.108,0,1,0-2.246,0v2.593a15.269,15.269,0,0,0-8.914,3.708l-7.013-7.013a5.381,5.381,0,1,0-1.588,1.588l7.015,7.015a15.272,15.272,0,0,0-3.673,8.876H11.055a5.425,5.425,0,1,0,0,2.246h3.972a15.347,15.347,0,0,0,3.665,8.876l-5.717,5.717a5.38,5.38,0,1,0,1.588,1.588l5.709-5.709a15.431,15.431,0,0,0,1.423,1.1l.008.005.021.015a15.288,15.288,0,0,0,7.477,2.587v2.589a6.108,6.108,0,1,0,2.246,0v-2.589a15.289,15.289,0,0,0,7.479-2.589l.018-.013.007,0a15.386,15.386,0,0,0,1.355-1.045l5.655,5.654a5.378,5.378,0,1,0,1.588-1.588m1.509-38a2.509,2.509,0,1,1,0,3.549,2.5,2.5,0,0,1,0-3.549m-22.6-1.609a3.862,3.862,0,1,1,3.862,3.862,3.867,3.867,0,0,1-3.862-3.862m-19.915,4.58a3.133,3.133,0,1,1,2.215.917,3.112,3.112,0,0,1-2.215-.917m-.8,22.491a3.179,3.179,0,1,1,3.179-3.179,3.183,3.183,0,0,1-3.179,3.179m20.94-1.91a4.829,4.829,0,1,1,3.64,1.649h-.013a4.833,4.833,0,0,1-3.628-1.649m-.455,5.247a6.83,6.83,0,0,1,4.083-1.352h.013a6.831,6.831,0,0,1,4.082,1.351,6.248,6.248,0,0,1,.756.657,6.808,6.808,0,0,1,1.957,4.019,13.083,13.083,0,0,1-13.6,0,6.786,6.786,0,0,1,2.707-4.679M12.265,940.994h0a3.132,3.132,0,1,1,0-4.43,3.111,3.111,0,0,1,0,4.43m21.92,1.448a3.862,3.862,0,1,1-3.862-3.862,3.867,3.867,0,0,1,3.862,3.862m18.5-1.448a3.131,3.131,0,1,1,0-4.43,3.137,3.137,0,0,1,0,4.43" transform="translate(1201.427 300.225)" fill="#003753"/><path d="M78.224,925.781a6.115,6.115,0,0,0-6,4.985h-2.6c-.015-.2-.028-.4-.051-.6a1.123,1.123,0,1,0-2.232.249,12.659,12.659,0,0,1,0,2.94,1.124,1.124,0,0,0,.992,1.241,1.183,1.183,0,0,0,.126.007,1.123,1.123,0,0,0,1.115-1c.023-.205.036-.4.051-.6h2.6a6.107,6.107,0,1,0,6-7.231m0,9.971a3.862,3.862,0,1,1,3.862-3.862,3.867,3.867,0,0,1-3.862,3.862" transform="translate(1177.418 286.885)" fill="#003753"/></g></svg>