<svg xmlns="http://www.w3.org/2000/svg" width="59.984" height="60" viewBox="0 0 59.984 60"><g transform="translate(-1504.345 -1195.06)"><path d="M207.336,179.045c7.409-8.764,9.92-18.978,8.361-28.3-9.335-1.578-19.532.952-28.3,8.361-.936.776-2.41,2.177-3.292,3.06a43.7,43.7,0,0,0-5.26,6.366,40.238,40.238,0,0,0-3.513,6.4,35.905,35.905,0,0,0-2.051,5.973l12.241,12.241a34.8,34.8,0,0,0,5.973-2.05,39.074,39.074,0,0,0,6.365-3.495,42.129,42.129,0,0,0,6.41-5.269c.882-.883,2.285-2.356,3.06-3.292" transform="translate(1347.061 1045.883)" fill="#feddd4"/><path d="M167.543,191.1l-10.28-1.739,2.847-6.374a6.223,6.223,0,0,1,5.212-3.669l7.784-.593a40.248,40.248,0,0,0-3.513,6.4,35.9,35.9,0,0,0-2.05,5.973" transform="translate(1352.804 1035.694)" fill="#feddd4"/><path d="M200.425,221.4l-6.376,2.839-1.739-10.28.035.036a34.889,34.889,0,0,0,5.973-2.05,39.052,39.052,0,0,0,6.365-3.5l-.584,7.733a6.225,6.225,0,0,1-3.675,5.218" transform="translate(1340.241 1025.039)" fill="#feddd4"/><path d="M213.535,177.151a11.609,11.609,0,0,1-5.353,3.127,5.386,5.386,0,0,1-6.951-6.951,11.609,11.609,0,0,1,3.127-5.353c3.581-3.581,8.547-4.436,11.08-1.9s1.678,7.5-1.9,11.081" transform="translate(1337.129 1040.752)" fill="#fa8060"/><path d="M149.468,236.03a1.123,1.123,0,0,1-.794-1.916l8.571-8.571a1.123,1.123,0,0,1,1.587,1.588l-8.571,8.57a1.117,1.117,0,0,1-.794.329" transform="translate(1356 1019.03)" fill="#9d9d9d"/><path d="M149.969,219.938a1.123,1.123,0,0,1-.794-1.916l4.277-4.277a1.123,1.123,0,0,1,1.588,1.587l-4.277,4.277a1.117,1.117,0,0,1-.794.329" transform="translate(1355.821 1023.259)" fill="#9d9d9d"/><path d="M167.919,237.919a1.123,1.123,0,0,1-.794-1.916l4.363-4.363a1.123,1.123,0,1,1,1.588,1.588l-4.363,4.363a1.118,1.118,0,0,1-.794.329" transform="translate(1349.386 1016.844)" fill="#9d9d9d"/><path d="M176.542,212.468l-7.26-7.26a3.033,3.033,0,0,1-.243-4.015l2.492-3.181,12.205,12.205-3.181,2.492a3.032,3.032,0,0,1-4.015-.243" transform="translate(1348.814 1028.78)" fill="#fa8060"/><path d="M201.033,179.23a6.4,6.4,0,0,0,4.625,1.791,9.1,9.1,0,0,0,2.159-.269,12.76,12.76,0,0,0,5.884-3.425c4.017-4.017,4.871-9.7,1.9-12.669s-8.651-2.115-12.668,1.9a12.745,12.745,0,0,0-3.424,5.88,7,7,0,0,0,1.521,6.788m.661-6.259a10.484,10.484,0,0,1,2.829-4.822A9.651,9.651,0,0,1,211,165.13a4.164,4.164,0,0,1,3.021,1.116c2.057,2.057,1.185,6.4-1.9,9.492a10.482,10.482,0,0,1-4.826,2.831,4.281,4.281,0,0,1-5.593-5.6" transform="translate(1337.756 1041.37)" fill="#003753"/><path d="M157.245,225.542l-8.571,8.57a1.123,1.123,0,1,0,1.588,1.588l8.571-8.57a1.123,1.123,0,0,0-1.588-1.588" transform="translate(1356 1019.03)" fill="#003753"/><path d="M149.969,219.938a1.117,1.117,0,0,0,.794-.329l4.277-4.277a1.123,1.123,0,0,0-1.588-1.587l-4.277,4.277a1.123,1.123,0,0,0,.794,1.916" transform="translate(1355.821 1023.259)" fill="#003753"/><path d="M171.488,231.639,167.125,236a1.123,1.123,0,1,0,1.587,1.588l4.363-4.363a1.123,1.123,0,0,0-1.588-1.588" transform="translate(1349.386 1016.844)" fill="#003753"/><path d="M210.433,149.936a1.122,1.122,0,0,0-.921-.921,33.467,33.467,0,0,0-11.151,0,1.123,1.123,0,0,0,.371,2.215,31.27,31.27,0,0,1,9.608-.129c1.318,9.317-1.59,18.728-8.241,26.6-.714.862-2.044,2.269-2.989,3.214a41.049,41.049,0,0,1-6.247,5.134,38.079,38.079,0,0,1-6.194,3.4,33.872,33.872,0,0,1-5.172,1.83l-11.336-11.336a34.592,34.592,0,0,1,1.832-5.184,39.329,39.329,0,0,1,3.412-6.22,42.711,42.711,0,0,1,5.125-6.2c.946-.945,2.353-2.276,3.223-3a39.762,39.762,0,0,1,3.6-2.7,1.122,1.122,0,1,0-1.246-1.868,41.989,41.989,0,0,0-3.794,2.847c-1.022.847-2.575,2.337-3.37,3.131a44.934,44.934,0,0,0-5.075,6.08l-7.26.552a7.342,7.342,0,0,0-6.152,4.33l-2.847,6.375a1.123,1.123,0,0,0,.838,1.565l8.419,1.424-1.329,1.7a4.159,4.159,0,0,0,.333,5.5l7.259,7.259a4.16,4.16,0,0,0,5.5.333l1.7-1.329,1.424,8.42a1.124,1.124,0,0,0,1.564.839l6.376-2.84a7.338,7.338,0,0,0,4.338-6.158l.545-7.205A43.352,43.352,0,0,0,198.7,182.5c.795-.794,2.284-2.347,3.124-3.361,7.267-8.6,10.325-18.968,8.611-29.206m-49.926,22.691a5.1,5.1,0,0,1,4.272-3.007l5.561-.423a41.552,41.552,0,0,0-2.4,4.653,36.714,36.714,0,0,0-1.841,5.156l-7.848-1.328Zm14.74,21.47a1.913,1.913,0,0,1-2.529-.153l-7.26-7.26a1.912,1.912,0,0,1-.153-2.528l1.711-2.184,10.413,10.414Zm14.543.529a5.1,5.1,0,0,1-3.013,4.277l-5.053,2.25-1.32-7.8a35.993,35.993,0,0,0,5.172-1.848,40.546,40.546,0,0,0,4.631-2.383Z" transform="translate(1353.431 1046.51)" fill="#003753"/><path d="M208.408,155.047a1.12,1.12,0,0,0,.469-.1c.927-.427,1.89-.819,2.863-1.164a1.123,1.123,0,0,0-.753-2.116c-1.036.368-2.062.786-3.05,1.241a1.123,1.123,0,0,0,.47,2.143" transform="translate(1334.873 1045.417)" fill="#fa8060"/></g></svg>