<svg xmlns="http://www.w3.org/2000/svg" width="64.232" height="60" viewBox="0 0 64.232 60"><g transform="translate(-308.177 -1552.308)"><path d="M493.069,608.756v16.1a11.373,11.373,0,0,1-11.376,11.376H454.385l-8.312,6.313V608.756a11.373,11.373,0,0,1,11.376-11.376h24.243a11.373,11.373,0,0,1,11.376,11.376" transform="translate(-136.694 956.13)" fill="#feddd4"/><path d="M514.659,626.846v33.792l-8.312-6.313H479.039a11.377,11.377,0,0,1-11.376-11.376V641.9h20.788a11.373,11.373,0,0,0,11.376-11.376V615.47h3.456a11.373,11.373,0,0,1,11.376,11.376" transform="translate(-143.452 950.467)" fill="#feddd4"/><path d="M479.581,621.936a3.1,3.1,0,1,0,3.1,3.1,3.1,3.1,0,0,0-3.1-3.1" transform="translate(-146.212 948.443)" fill="#fa8060"/><path d="M461.361,621.936a3.1,3.1,0,1,0,3.1,3.1,3.1,3.1,0,0,0-3.1-3.1" transform="translate(-140.508 948.443)" fill="#fa8060"/><path d="M497.8,621.936a3.1,3.1,0,1,0,3.1,3.1,3.1,3.1,0,0,0-3.1-3.1" transform="translate(-151.915 948.443)" fill="#fa8060"/><path d="M535.525,644.11a1.2,1.2,0,0,0-1.2,1.2v3.414a1.2,1.2,0,1,0,2.4,0v-3.414a1.2,1.2,0,0,0-1.2-1.2" transform="translate(-164.318 941.502)" fill="#fa8060"/><path d="M495.976,608.057h-2.261a12.589,12.589,0,0,0-12.572-12.427H456.9a12.593,12.593,0,0,0-12.578,12.578V642a1.2,1.2,0,0,0,1.929.957l7.989-6.068h4.921a12.589,12.589,0,0,0,12.571,12.427h26.9l7.99,6.068a1.2,1.2,0,0,0,1.93-.957V639.816a1.2,1.2,0,0,0-2.4,0V652l-6.383-4.848a1.206,1.206,0,0,0-.727-.245H471.733a10.182,10.182,0,0,1-10.166-10.023h19.577a12.593,12.593,0,0,0,12.579-12.578V610.462h2.253a10.185,10.185,0,0,1,10.174,10.174v3.236a1.2,1.2,0,1,0,2.4,0v-3.236a12.593,12.593,0,0,0-12.578-12.578m-4.658,16.254a10.186,10.186,0,0,1-10.175,10.174H453.837a1.2,1.2,0,0,0-.727.245l-6.383,4.847V608.208A10.185,10.185,0,0,1,456.9,598.034h24.243a10.185,10.185,0,0,1,10.175,10.174Z" transform="translate(-136.146 956.678)" fill="#003753"/><path d="M479.033,620.186a4.3,4.3,0,1,0,4.3,4.3,4.309,4.309,0,0,0-4.3-4.3m0,6.2a1.9,1.9,0,1,1,1.9-1.9,1.9,1.9,0,0,1-1.9,1.9" transform="translate(-145.664 948.991)" fill="#003753"/><path d="M460.813,620.186a4.3,4.3,0,1,0,4.3,4.3,4.309,4.309,0,0,0-4.3-4.3m0,6.2a1.9,1.9,0,1,1,1.9-1.9,1.9,1.9,0,0,1-1.9,1.9" transform="translate(-139.96 948.991)" fill="#003753"/><path d="M497.252,620.186a4.3,4.3,0,1,0,4.3,4.3,4.309,4.309,0,0,0-4.3-4.3m0,6.2a1.9,1.9,0,1,1,1.9-1.9,1.9,1.9,0,0,1-1.9,1.9" transform="translate(-151.367 948.991)" fill="#003753"/></g></svg>