<svg xmlns="http://www.w3.org/2000/svg" width="38.452" height="60" viewBox="0 0 38.452 60"><g transform="translate(-1510.414 -1558.038)"><path d="M298.094,460.344a14.752,14.752,0,0,1,29.47,0c.014.22.019.441.019.661a14.65,14.65,0,0,1-2.49,8.259l8.511,8.51a2.871,2.871,0,1,1-4.06,4.06l-8.511-8.505a14.759,14.759,0,0,1-22.489-8.556,14.539,14.539,0,0,1-.469-3.878c0-.182,0-.364.019-.546" transform="translate(1213.048 1134.657)" fill="#feddd4"/><path d="M311.818,474.807a8.867,8.867,0,0,0,.675.614,10.433,10.433,0,0,0,12.441.727,9.5,9.5,0,0,0,.969-.727c.228-.189.451-.395.671-.614a10.749,10.749,0,0,0,1.346-1.64,10.438,10.438,0,1,0-16.1,1.64" transform="translate(1206.678 1128.285)" fill="#feddd4"/><path d="M317.992,493.974a10.434,10.434,0,0,0,12.441.728,9.509,9.509,0,0,0,.969-.728,6.769,6.769,0,0,0-13.411,0" transform="translate(1201.18 1109.733)" fill="#fa8060"/><path d="M323.585,470.638a4.4,4.4,0,0,0,.289,1.577,4.425,4.425,0,1,0-.289-1.577" transform="translate(1197.847 1122.794)" fill="#fa8060"/><path d="M318.159,455.243a11.143,11.143,0,0,0-7.879,19.021c.248.247.481.459.7.642h0l.014.012a11.182,11.182,0,0,0,13.286.778,10.248,10.248,0,0,0,1.031-.774l.017-.015.006-.005c.229-.19.463-.4.7-.639a11.467,11.467,0,0,0,1.436-1.751,11.174,11.174,0,0,0-1.436-14.006A11.061,11.061,0,0,0,318.159,455.243Zm-5.933,18.837a6.058,6.058,0,0,1,5.937-4.839,6.072,6.072,0,0,1,5.932,4.849c-.188.147-.382.29-.588.425a9.762,9.762,0,0,1-11.282-.436m2.44-8.653a3.733,3.733,0,0,1,3.5-5.044,3.722,3.722,0,1,1-3.5,5.044m11.629,6.306a10.047,10.047,0,0,1-1.021,1.27,7.506,7.506,0,0,0-4.283-4.611,5.13,5.13,0,0,0-2.829-9.424,5.139,5.139,0,0,0-4.817,6.965,5.141,5.141,0,0,0,1.981,2.45A7.5,7.5,0,0,0,311.047,473a9.722,9.722,0,1,1,15.248-1.272" transform="translate(1207.716 1129.328)" fill="#003753"/><path d="M333.061,476.232l-8.107-8.107a15.12,15.12,0,0,0,1.842-4.392,15.4,15.4,0,0,0,.452-3.771c0-.236,0-.472-.02-.694a15.453,15.453,0,0,0-2.294-7.4.707.707,0,0,0-1.2.746,14.045,14.045,0,0,1,2.085,6.73c.014.2.018.409.018.616a13.939,13.939,0,0,1-2.369,7.862.707.707,0,0,0,.087.895l8.51,8.509a2.171,2.171,0,0,1,0,3.062,2.156,2.156,0,0,1-3.059,0l-8.51-8.505a.707.707,0,0,0-.894-.087,14.074,14.074,0,0,1-17.746-1.746,13.926,13.926,0,0,1-3.127-4.756,14.218,14.218,0,0,1-.538-1.645,13.839,13.839,0,0,1-.446-3.7c0-.163,0-.327.018-.513A14.039,14.039,0,0,1,316.819,446.9a.707.707,0,1,0,.506-1.321,15.454,15.454,0,0,0-20.98,13.668c-.016.2-.021.4-.021.591a15.232,15.232,0,0,0,.492,4.068,15.6,15.6,0,0,0,.591,1.809,15.316,15.316,0,0,0,3.443,5.234,15.493,15.493,0,0,0,19.043,2.237l8.106,8.1a3.547,3.547,0,0,0,2.53,1.052h0a3.548,3.548,0,0,0,2.53-1.051,3.587,3.587,0,0,0,0-5.06" transform="translate(1214.091 1135.694)" fill="#003753"/><path d="M354.568,452.784a14.246,14.246,0,0,1,1.471,1.235.707.707,0,1,0,.978-1.021,15.612,15.612,0,0,0-1.618-1.358.707.707,0,0,0-.832,1.144" transform="translate(1179.56 1131.555)" fill="#fa8060"/><path d="M465.25,602.022v6.571a4.641,4.641,0,0,1-4.642,4.642H449.465l-3.392,2.576V602.022a4.641,4.641,0,0,1,4.642-4.642h9.893a4.641,4.641,0,0,1,4.642,4.642" transform="translate(1082.946 961.328)" fill="#feddd4"/><path d="M445.743,616.152a.67.67,0,0,1-.67-.67V601.692a5.318,5.318,0,0,1,5.312-5.312h9.893a5.318,5.318,0,0,1,5.312,5.312v6.571a5.318,5.318,0,0,1-5.312,5.312H449.361l-3.212,2.44A.669.669,0,0,1,445.743,616.152Zm4.642-18.431a3.976,3.976,0,0,0-3.972,3.972V614.13l2.316-1.759a.67.67,0,0,1,.405-.137h11.143a3.976,3.976,0,0,0,3.972-3.972v-6.571a3.976,3.976,0,0,0-3.972-3.972Z" transform="translate(1083.276 961.658)" fill="#003753"/><path d="M477.745,621.936a1.266,1.266,0,1,0,1.266,1.266,1.266,1.266,0,0,0-1.266-1.266" transform="translate(1061.064 943.656)" fill="#fa8060"/><path d="M459.525,621.936a1.266,1.266,0,1,0,1.266,1.266,1.266,1.266,0,0,0-1.266-1.266" transform="translate(1074.177 943.656)" fill="#fa8060"/><path d="M495.965,621.936a1.266,1.266,0,1,0,1.266,1.266,1.266,1.266,0,0,0-1.266-1.266" transform="translate(1047.951 943.656)" fill="#fa8060"/><path d="M476.485,620.186a1.756,1.756,0,1,0,1.756,1.756,1.758,1.758,0,0,0-1.756-1.756m0,2.531a.775.775,0,1,1,.775-.775.776.776,0,0,1-.775.775" transform="translate(1062.323 944.915)" fill="#003753"/><path d="M458.265,620.186a1.756,1.756,0,1,0,1.756,1.756,1.758,1.758,0,0,0-1.756-1.756m0,2.531a.775.775,0,1,1,.775-.775.776.776,0,0,1-.775.775" transform="translate(1075.436 944.915)" fill="#003753"/><path d="M494.7,620.186a1.756,1.756,0,1,0,1.756,1.756,1.758,1.758,0,0,0-1.756-1.756m0,2.531a.775.775,0,1,1,.775-.775.776.776,0,0,1-.775.775" transform="translate(1049.211 944.915)" fill="#003753"/></g></svg>