<svg xmlns="http://www.w3.org/2000/svg" width="72.668" height="60" viewBox="0 0 72.668 60"><g transform="translate(-913.25 -1552.428)"><path d="M378.343,759.7v8.161a5.43,5.43,0,0,0-5.425-5.425H351.748a4.66,4.66,0,0,1-4.2-2.65l-2.907-6.047a3.756,3.756,0,0,0-.233-.427h27.552a6.388,6.388,0,0,1,6.389,6.389" transform="translate(606.215 802.701)" fill="#fa8060"/><path d="M368.021,767.222V802.3a5.431,5.431,0,0,1-5.425,5.433H303.5a5.431,5.431,0,0,1-5.425-5.433V755.883a5.431,5.431,0,0,1,5.425-5.433h26.611a4.664,4.664,0,0,1,3.971,2.223,3.742,3.742,0,0,1,.233.427l2.907,6.047a4.66,4.66,0,0,0,4.2,2.65H362.6a5.43,5.43,0,0,1,5.425,5.425" transform="translate(616.537 803.338)" fill="#feddd4"/><path d="M361.242,750.923H334.386a6.063,6.063,0,0,0-4.668-2.223H303.107a6.8,6.8,0,0,0-6.784,6.793v46.414a6.8,6.8,0,0,0,6.784,6.793h59.1a6.8,6.8,0,0,0,6.786-6.793v-6.148a1.36,1.36,0,0,0-2.72,0v6.148a4.074,4.074,0,0,1-4.066,4.073h-59.1a4.073,4.073,0,0,1-4.064-4.073V755.493a4.073,4.073,0,0,1,4.064-4.073h26.611a3.333,3.333,0,0,1,2.828,1.6,2.416,2.416,0,0,1,.151.28l2.905,6.043a6.04,6.04,0,0,0,5.432,3.426h21.171a4.071,4.071,0,0,1,4.066,4.066v10.892a1.36,1.36,0,1,0,2.72,0V758.672a7.758,7.758,0,0,0-7.749-7.749m.964,9.124H341.035a3.309,3.309,0,0,1-2.978-1.879l-2.175-4.525h25.361a5.035,5.035,0,0,1,5.029,5.029v2.74a6.742,6.742,0,0,0-4.066-1.365" transform="translate(616.927 803.728)" fill="#003753"/><path d="M602.977,636.018a1.2,1.2,0,0,0,1.195-1.194v-3.4a1.194,1.194,0,0,0-2.389,0v3.4a1.194,1.194,0,0,0,1.194,1.194" transform="translate(381.483 957.542)" fill="#fa8060"/></g></svg>