<svg xmlns="http://www.w3.org/2000/svg" width="60" height="60" viewBox="0 0 60 60"><g transform="translate(-616.986 -1552.308)"><path d="M487.846,462.336v10.235a2.607,2.607,0,0,0,2.605,2.605H498.7V498.92c0,2.824-1.745,5.134-3.889,5.134H468.062c-2.143,0-3.889-2.31-3.889-5.134v-3.908h14.445a2.609,2.609,0,0,0,2.605-2.612V482.165a2.607,2.607,0,0,0-2.605-2.605H464.173V471.1h7.258a2.609,2.609,0,0,0,2.612-2.605V457.183a2.609,2.609,0,0,0-2.612-2.605h-7.258v-3.144c0-2.824,1.745-5.134,3.889-5.134h26.747c2.143,0,3.889,2.31,3.889,5.134v8.291h-8.246a2.609,2.609,0,0,0-2.605,2.612" transform="translate(165.551 1107.131)" fill="#feddd4"/><path d="M523.529,469.832v10.235a2.607,2.607,0,0,1-2.605,2.605H503.668a2.607,2.607,0,0,1-2.605-2.605V469.832a2.609,2.609,0,0,1,2.605-2.612h17.256a2.609,2.609,0,0,1,2.605,2.612" transform="translate(152.334 1099.635)" fill="#feddd4"/><path d="M467.557,461.805v11.313a2.609,2.609,0,0,1-2.612,2.605H448.678a2.607,2.607,0,0,1-2.605-2.605V461.805a2.607,2.607,0,0,1,2.605-2.605h16.267a2.609,2.609,0,0,1,2.612,2.605" transform="translate(172.036 1102.509)" fill="#feddd4"/><path d="M477.981,500.735v10.235a2.609,2.609,0,0,1-2.605,2.612H457.735a2.61,2.61,0,0,1-2.612-2.612V500.735a2.609,2.609,0,0,1,2.612-2.605h17.641a2.607,2.607,0,0,1,2.605,2.605" transform="translate(168.794 1088.561)" fill="#feddd4"/><path d="M465.3,506.439h9a1.123,1.123,0,0,0,0-2.246h-9a1.123,1.123,0,1,0,0,2.246" transform="translate(165.551 1086.388)" fill="#fffaf9"/><path d="M474.292,512.647h-9a1.123,1.123,0,1,0,0,2.246h9a1.123,1.123,0,1,0,0-2.246" transform="translate(165.551 1083.359)" fill="#fffaf9"/><path d="M491.622,450.694h-9.355a2.716,2.716,0,0,1-2.716-2.716V446.3h14.787v1.679a2.716,2.716,0,0,1-2.716,2.716" transform="translate(160.041 1107.131)" fill="#fa8060"/><path d="M457.719,473.11v-6.4a.632.632,0,0,1,.96-.541l5.273,3.2a.633.633,0,0,1,0,1.082l-5.273,3.2a.632.632,0,0,1-.96-.541" transform="translate(167.863 1100.045)" fill="#fa8060"/><path d="M523.529,480.9v2.567a2.607,2.607,0,0,1-2.605,2.605H503.668a2.607,2.607,0,0,1-2.605-2.605v-2.265l5.224-4.081a1.925,1.925,0,0,1,2.49.109l3.446,3.209a1.908,1.908,0,0,0,2.592.013l2.734-2.483a1.918,1.918,0,0,1,2.541-.032Z" transform="translate(152.334 1096.232)" fill="#fa8060"/><path d="M521.273,472.737a1.478,1.478,0,1,1-1.478-1.478,1.478,1.478,0,0,1,1.478,1.478" transform="translate(146.152 1098.188)" fill="#9d9d9d"/><path d="M517.346,508.17a1.123,1.123,0,0,0-1.123,1.123v3.189a1.123,1.123,0,0,0,2.246,0v-3.189a1.123,1.123,0,0,0-1.123-1.123" transform="translate(146.902 1084.964)" fill="#fa8060"/><path d="M500.595,457.975h-7.887v-7.168c0-3.45-2.249-6.257-5.012-6.257H460.95c-2.764,0-5.012,2.807-5.012,6.257v2.021h-7.887a3.732,3.732,0,0,0-3.728,3.728V467.87a3.732,3.732,0,0,0,3.728,3.728h7.887v6.212h-2.073a3.736,3.736,0,0,0-3.735,3.728v10.235a3.739,3.739,0,0,0,3.735,3.735h2.073v2.785c0,3.45,2.248,6.257,5.012,6.257H487.7c2.763,0,5.012-2.807,5.012-6.257v-2.759a1.123,1.123,0,0,0-2.246,0v2.759c0,2.174-1.266,4.011-2.766,4.011H460.95c-1.5,0-2.766-1.837-2.766-4.011v-2.785h13.322a3.736,3.736,0,0,0,3.728-3.735V481.538a3.733,3.733,0,0,0-3.728-3.728H458.184V471.6h6.135a3.736,3.736,0,0,0,3.735-3.728V456.556a3.736,3.736,0,0,0-3.735-3.728h-6.135v-2.021c0-2.174,1.266-4.011,2.766-4.011h4.856v.556a3.843,3.843,0,0,0,3.839,3.839H479a3.843,3.843,0,0,0,3.839-3.839V446.8H487.7c1.5,0,2.766,1.837,2.766,4.011v7.168h-7.123a3.736,3.736,0,0,0-3.728,3.735v10.235a3.733,3.733,0,0,0,3.728,3.728h7.123v4.973a1.123,1.123,0,0,0,2.246,0v-4.973h7.887a3.732,3.732,0,0,0,3.728-3.728V461.709a3.736,3.736,0,0,0-3.728-3.735m-27.606,23.564v10.235a1.487,1.487,0,0,1-1.482,1.489H453.865a1.491,1.491,0,0,1-1.489-1.489V481.538a1.487,1.487,0,0,1,1.489-1.482h17.641a1.484,1.484,0,0,1,1.482,1.482m-7.181-24.982V467.87a1.487,1.487,0,0,1-1.489,1.482H448.051a1.484,1.484,0,0,1-1.482-1.482V456.556a1.484,1.484,0,0,1,1.482-1.482h16.267a1.487,1.487,0,0,1,1.489,1.482m14.786-9.2A1.594,1.594,0,0,1,479,448.944h-9.355a1.6,1.6,0,0,1-1.593-1.593V446.8h12.541Zm2.746,12.869h17.256a1.487,1.487,0,0,1,1.482,1.489v5.218l-1.581-1.362a3.043,3.043,0,0,0-4.033.049l-2.736,2.485a.789.789,0,0,1-1.07-.006l-3.449-3.211a3.04,3.04,0,0,0-3.943-.17l-3.409,2.664v-5.668a1.487,1.487,0,0,1,1.482-1.489m18.738,11.724a1.484,1.484,0,0,1-1.482,1.482H483.339a1.484,1.484,0,0,1-1.482-1.482v-1.717l4.788-3.742a.8.8,0,0,1,1.036.044l3.443,3.205a3.047,3.047,0,0,0,4.116.026l2.73-2.482a.8.8,0,0,1,1.056-.015l3.05,2.628Z" transform="translate(172.663 1107.758)" fill="#003753"/><path d="M465.3,506.439h9a1.123,1.123,0,0,0,0-2.246h-9a1.123,1.123,0,1,0,0,2.246" transform="translate(165.551 1086.388)" fill="#003753"/><path d="M465.3,514.893h9a1.123,1.123,0,1,0,0-2.246h-9a1.123,1.123,0,0,0,0,2.246" transform="translate(165.551 1083.359)" fill="#003753"/><path d="M456.863,464.555a1.756,1.756,0,0,0-.9,1.53v6.4a1.756,1.756,0,0,0,2.666,1.5l5.274-3.2a1.756,1.756,0,0,0,0-3l-5.274-3.2a1.756,1.756,0,0,0-1.771-.03m1.351,7.058v-4.657l3.837,2.329Z" transform="translate(168.491 1100.671)" fill="#003753"/><path d="M519.795,474.214a1.478,1.478,0,1,0-1.478-1.478,1.478,1.478,0,0,0,1.478,1.478" transform="translate(146.152 1098.189)" fill="#003753"/></g></svg>