<svg xmlns="http://www.w3.org/2000/svg" width="59.557" height="60" viewBox="0 0 59.557 60"><g transform="translate(-913.413 -1908.256)"><path d="M311.529,383.384H298.072V381.4a6.728,6.728,0,0,1,13.457,0Z" transform="translate(616.459 1583.707)" fill="#feddd4"/><path d="M310.523,365.3a4.418,4.418,0,1,1-4.418-4.4,4.41,4.41,0,0,1,4.418,4.4" transform="translate(615.155 1588.676)" fill="#feddd4"/><path d="M380.152,383.384H366.7V381.4a6.728,6.728,0,0,1,13.457,0Z" transform="translate(591.7 1583.707)" fill="#feddd4"/><path d="M379.145,365.3a4.418,4.418,0,1,1-4.418-4.4,4.41,4.41,0,0,1,4.418,4.4" transform="translate(590.396 1588.676)" fill="#feddd4"/><path d="M346.139,325.748H329.534v-4.02A6.728,6.728,0,0,1,336.262,315h3.149a6.729,6.729,0,0,1,6.728,6.728Z" transform="translate(605.107 1605.237)" fill="#fa8060"/><path d="M344.9,303.437a5.452,5.452,0,1,1-5.452-5.432,5.442,5.442,0,0,1,5.452,5.432" transform="translate(603.499 1611.369)" fill="#fa8060"/><path d="M346,383.457H332.547v-1.981a6.728,6.728,0,1,1,13.456,0Z" transform="translate(604.02 1583.681)" fill="#feddd4"/><path d="M345,365.377a4.418,4.418,0,1,1-4.418-4.4,4.41,4.41,0,0,1,4.418,4.4" transform="translate(602.716 1588.65)" fill="#feddd4"/><path d="M349.178,339.574H310.62a3.775,3.775,0,0,0-3.771,3.771v4.125a1.119,1.119,0,0,0,2.237,0v-4.125a1.535,1.535,0,0,1,1.533-1.533H328.8l.088,5.675a1.119,1.119,0,0,0,1.118,1.1h.018a1.12,1.12,0,0,0,1.1-1.136l-.087-5.642h18.143a1.536,1.536,0,0,1,1.534,1.533v4.125a1.119,1.119,0,0,0,2.237,0v-4.125a3.775,3.775,0,0,0-3.771-3.771" transform="translate(613.292 1596.371)" fill="#003753"/><path d="M307.79,368.839a5.536,5.536,0,1,0-7.236,0,7.852,7.852,0,0,0-4.231,6.958v1.982a1.119,1.119,0,0,0,1.119,1.119h3.816a1.119,1.119,0,1,0,0-2.237h-2.7V375.8a5.618,5.618,0,0,1,5.587-5.611h.05a5.611,5.611,0,0,1,5.581,5.611v.863h-2.7a1.119,1.119,0,1,0,0,2.237H310.9a1.119,1.119,0,0,0,1.119-1.119V375.8a7.793,7.793,0,0,0-2.3-5.547,7.907,7.907,0,0,0-1.929-1.416m-6.92-4.167a3.3,3.3,0,1,1,3.317,3.281h-.033a3.294,3.294,0,0,1-3.284-3.281" transform="translate(617.09 1589.307)" fill="#003753"/><path d="M376.407,368.844a5.537,5.537,0,1,0-7.229,0,7.851,7.851,0,0,0-4.233,6.958v1.982a1.119,1.119,0,0,0,1.119,1.119H379.52a1.119,1.119,0,0,0,1.119-1.119V375.8a7.85,7.85,0,0,0-4.232-6.958m-6.914-4.172a3.3,3.3,0,1,1,3.3,3.283,3.3,3.3,0,0,1-3.3-3.283m8.909,11.993H367.182V375.8a5.61,5.61,0,1,1,11.219,0Z" transform="translate(592.331 1589.307)" fill="#003753"/><path d="M328.9,320.107h4.238a1.119,1.119,0,0,0,0-2.237h-3.119v-2.9a5.618,5.618,0,0,1,5.612-5.612h3.146a5.618,5.618,0,0,1,5.612,5.612v2.9h-5.427a1.119,1.119,0,1,0,0,2.237h6.546a1.119,1.119,0,0,0,1.119-1.119v-4.021a7.856,7.856,0,0,0-5.02-7.313,6.571,6.571,0,1,0-8.8,0,7.857,7.857,0,0,0-5.02,7.313v4.021a1.119,1.119,0,0,0,1.119,1.119m8.3-21.614a4.313,4.313,0,1,1,.006,8.626H337.2a4.313,4.313,0,1,1,.006-8.626" transform="translate(605.74 1612)" fill="#003753"/><path d="M342.258,368.917a5.537,5.537,0,1,0-7.229,0,7.85,7.85,0,0,0-4.232,6.958v1.982a1.119,1.119,0,0,0,1.119,1.119h13.456a1.119,1.119,0,0,0,1.119-1.119v-1.982a7.85,7.85,0,0,0-4.232-6.958m-6.914-4.172a3.3,3.3,0,1,1,3.3,3.283,3.3,3.3,0,0,1-3.3-3.283m8.909,11.993H333.034v-.863a5.609,5.609,0,1,1,11.219,0Z" transform="translate(604.652 1589.281)" fill="#003753"/><path d="M307.968,348.589a1.119,1.119,0,0,0,1.119-1.119v-4.125a1.536,1.536,0,0,1,1.533-1.534H328.8l.088,5.676a1.119,1.119,0,0,0,1.119,1.1h.017a1.119,1.119,0,0,0,1.1-1.136l-.087-5.642h18.143a1.536,1.536,0,0,1,1.534,1.534v4.125a1.119,1.119,0,0,0,2.237,0v-4.125a3.775,3.775,0,0,0-3.771-3.771H310.62a3.775,3.775,0,0,0-3.771,3.771v4.125a1.119,1.119,0,0,0,1.119,1.119" transform="translate(613.292 1596.371)" fill="#003753"/></g></svg>