<svg xmlns="http://www.w3.org/2000/svg" width="60" height="60" viewBox="0 0 60 60"><g transform="translate(-308.177 -1917.507)"><path d="M503.827,1073.237H446.073v-30.353a4.584,4.584,0,0,1,4.584-4.584h48.585a4.584,4.584,0,0,1,4.584,4.584Z" transform="translate(-136.773 880.33)" fill="#feddd4"/><path d="M503.827,1092.743H446.073v4.354a4.584,4.584,0,0,0,4.584,4.584h48.585a4.585,4.585,0,0,0,4.584-4.584Z" transform="translate(-136.773 860.824)" fill="#fa8060"/><path d="M495.187,1125.573h-24.8a2.442,2.442,0,0,1,0-4.885h24.8a2.442,2.442,0,0,1,0,4.885" transform="translate(-144.607 850.812)" fill="#fa8060"/><path d="M492.78,1106.672h-12.6l-1.925,8.994h16.45Z" transform="translate(-148.303 855.833)" fill="#feddd4"/><path d="M498.615,1036.55H450.03a5.714,5.714,0,0,0-5.707,5.707v34.706a5.714,5.714,0,0,0,5.707,5.708h16.6l-1.444,6.748h-3.27a3.566,3.566,0,0,0,0,7.131h24.8a3.566,3.566,0,0,0,0-7.131h-3.27l-1.444-6.748h16.6a5.714,5.714,0,0,0,5.708-5.708v-9.858a1.123,1.123,0,0,0-2.246,0v4.381H446.569v-29.229a3.465,3.465,0,0,1,3.461-3.461h48.585a3.466,3.466,0,0,1,3.462,3.461v9.959a1.123,1.123,0,0,0,2.246,0v-9.959a5.714,5.714,0,0,0-5.708-5.707m-10.57,56.434a1.321,1.321,0,0,1-1.319,1.32h-24.8a1.32,1.32,0,0,1,0-2.639h24.8a1.321,1.321,0,0,1,1.319,1.319m-6.886-3.565H467.487l1.444-6.748h10.782Zm20.918-15.686v3.231a3.466,3.466,0,0,1-3.462,3.461H450.03a3.466,3.466,0,0,1-3.461-3.461v-3.231Z" transform="translate(-136.146 880.957)" fill="#003753"/><path d="M535.446,1068.329a1.123,1.123,0,0,0-1.123,1.123v3.19a1.123,1.123,0,0,0,2.246,0v-3.19a1.123,1.123,0,0,0-1.123-1.123" transform="translate(-168.392 869.571)" fill="#fa8060"/><g transform="translate(321.39 1924.69)"><path d="M190.8,762.7a5.373,5.373,0,0,1-.655,2.578,5.45,5.45,0,0,1-9.57,0,5.373,5.373,0,0,1-.655-2.578c0-.142.006-.284.018-.424a5.44,5.44,0,0,1,10.844,0c.012.139.018.282.018.424" transform="translate(-168.576 -756.651)" fill="#fa8060"/><path d="M188.571,795.164v3.019H172v-3.019a7.7,7.7,0,0,1,7.7-7.7h1.161a7.7,7.7,0,0,1,7.7,7.7" transform="translate(-163.5 -775.994)" fill="#feddd4"/><path d="M160.47,791.33a7.688,7.688,0,0,0-2.521,5.7v2.263h-7.875v-2.03a6.893,6.893,0,0,1,10.4-5.934" transform="translate(-149.445 -777.861)" fill="#fa8060"/><path d="M165.667,770.389a4.512,4.512,0,1,1-.637-3c-.012.139-.018.281-.018.424a5.372,5.372,0,0,0,.655,2.578" transform="translate(-153.664 -761.764)" fill="#feddd4"/><path d="M221.518,797.266v2.03h-7.875v-2.264a7.686,7.686,0,0,0-2.521-5.7,6.891,6.891,0,0,1,10.4,5.935" transform="translate(-188.571 -777.861)" fill="#fa8060"/><path d="M217.408,769.768a4.528,4.528,0,0,1-9.01.622,5.369,5.369,0,0,0,.655-2.578c0-.143-.006-.285-.018-.424a4.53,4.53,0,0,1,8.373,2.379" transform="translate(-186.825 -761.764)" fill="#feddd4"/><path d="M193.346,815.57h-1.785a.628.628,0,1,0,0,1.257h1.785a.628.628,0,1,0,0-1.257" transform="translate(-175.632 -794.01)" fill="#003753"/><path d="M179.7,769.615a7.489,7.489,0,0,0-2.635-1.7,5.14,5.14,0,1,0-6.174-8.16,6.064,6.064,0,0,0-11.554,0,5.143,5.143,0,1,0-6.168,8.164,7.526,7.526,0,0,0-4.842,7.019v2.029a.628.628,0,0,0,.628.628H156.2v.126a.628.628,0,0,0,.628.628h4.151a.628.628,0,1,0,0-1.257h-3.523V774.7a7.075,7.075,0,0,1,7.074-7.074h1.163a7.074,7.074,0,0,1,7.074,7.074v2.391h-3.454a.628.628,0,1,0,0,1.257H173.4a.628.628,0,0,0,.628-.628v-.126h7.247a.628.628,0,0,0,.628-.628v-2.029a7.471,7.471,0,0,0-2.2-5.318m-5.318-9.964a3.881,3.881,0,1,1-3.827,4.6,6.037,6.037,0,0,0,.627-2.672c0-.08-.006-.156-.01-.235a3.878,3.878,0,0,1,3.21-1.691m-9.268-2.865a4.822,4.822,0,0,1,4.8,4.42c.01.122.015.246.015.371a4.8,4.8,0,0,1-4.8,4.79H165.1a4.8,4.8,0,0,1-4.8-4.79c0-.124.005-.249.015-.375a4.822,4.822,0,0,1,4.8-4.415m-13.167,6.746a3.9,3.9,0,0,1,7.108-2.191c0,.079-.01.156-.01.235a6.041,6.041,0,0,0,.627,2.672,3.9,3.9,0,0,1-7.726-.716M156.2,774.7v1.636H149.58v-1.4a6.264,6.264,0,0,1,8.719-5.763,8.357,8.357,0,0,0-2.1,5.528m3.078-6.455a7.433,7.433,0,0,0-.749-.331,5.174,5.174,0,0,0,2.042-2.328A6.051,6.051,0,0,0,162,766.768a8.282,8.282,0,0,0-2.721,1.475m10.377-2.66a5.174,5.174,0,0,0,2.042,2.328,7.471,7.471,0,0,0-.749.331,8.285,8.285,0,0,0-2.721-1.475,6.05,6.05,0,0,0,1.427-1.184m10.989,10.751h-6.618V774.7a8.359,8.359,0,0,0-2.1-5.528,6.262,6.262,0,0,1,8.718,5.763Z" transform="translate(-148.323 -755.529)" fill="#003753"/></g></g></svg>